<svg xmlns:xlink="http://www.w3.org/1999/xlink" xmlns="http://www.w3.org/2000/svg" id="screenshot-3b504120-2329-11ed-9da0-7d8149f44519" viewBox="0 0 240 240" style="-webkit-print-color-adjust: exact;" fill="none" version="1.1"><g id="shape-3b504120-2329-11ed-9da0-7d8149f44519" rx="0" ry="0"><g id="shape-3b504121-2329-11ed-9da0-7d8149f44519"><g id="fills-3b504121-2329-11ed-9da0-7d8149f44519"><path d="M80,0 h0 a4,4 0 0 1 4,4 v232 a4,4 0 0 1 -4,4 h0 a4,4 0 0 1 -4,-4 v-232 a4,4 0 0 1 4,-4 z" x="76" y="0" transform="" width="8" height="240" style="fill: rgb(250, 250, 250); fill-opacity: 1;"/></g></g><g id="shape-3b506830-2329-11ed-9da0-7d8149f44519"><g id="fills-3b506830-2329-11ed-9da0-7d8149f44519"><path d="M160,0 h0 a4,4 0 0 1 4,4 v232 a4,4 0 0 1 -4,4 h0 a4,4 0 0 1 -4,-4 v-232 a4,4 0 0 1 4,-4 z" x="156" y="0" transform="" width="8" height="240" style="fill: rgb(250, 250, 250); fill-opacity: 1;"/></g></g><g id="shape-3b506831-2329-11ed-9da0-7d8149f44519"><g id="fills-3b506831-2329-11ed-9da0-7d8149f44519"><path d="M120,-40 h0 a4,4 0 0 1 4,4 v232.0000000000001 a4,4 0 0 1 -4,4 h0 a4,4 0 0 1 -4,-4 v-232.0000000000001 a4,4 0 0 1 4,-4 z" x="116" y="-40" transform="matrix(0,-1,1,0,40,200)" width="8" height="240.0000000000001" style="fill: rgb(250, 250, 250); fill-opacity: 1;"/></g></g><g id="shape-3b506832-2329-11ed-9da0-7d8149f44519"><g id="fills-3b506832-2329-11ed-9da0-7d8149f44519"><path d="M120,40 h0 a4,4 0 0 1 4,4 v232.0000000000001 a4,4 0 0 1 -4,4 h0 a4,4 0 0 1 -4,-4 v-232.0000000000001 a4,4 0 0 1 4,-4 z" x="116" y="40" transform="matrix(0,-1,1,0,-40,280)" width="8" height="240.0000000000001" style="fill: rgb(250, 250, 250); fill-opacity: 1;"/></g></g></g></svg>